<svg xmlns="http://www.w3.org/2000/svg" viewBox="0 0 32 32">
	<style>
		.tile { fill: #9a3b1b; }
		.mark { fill: #fbfaf6; }
		@media (prefers-color-scheme: dark) {
			.tile { fill: #e9875f; }
			.mark { fill: #151412; }
		}
	</style>
	<rect class="tile" width="32" height="32" rx="7" />
	<!-- The Y of Yapa, Literata Bold, the face of the site's title. -->
	<path class="mark" d="M20.43 25L11.57 25L11.57 23.18L13.09 22.97Q13.57 22.92 13.73 22.66Q13.88 22.41 13.88 21.66L13.88 18.14L9.26 10.39Q8.93 9.82 8.63 9.49Q8.34 9.16 7.72 9.05L6.69 8.87L6.69 7L15.27 7L15.27 8.85L13.98 9.03Q13.50 9.08 13.39 9.40Q13.29 9.72 13.65 10.31L16.81 15.50L16.94 15.50L19.89 10.47Q20.25 9.85 20.16 9.52Q20.07 9.18 19.43 9.05L18.22 8.82L18.22 7L25.31 7L25.31 8.85L24.02 9.08Q23.59 9.16 23.29 9.45Q23 9.75 22.56 10.49L18.09 18.09L18.09 21.76Q18.09 22.41 18.25 22.66Q18.40 22.92 18.91 22.97L20.43 23.18" />
</svg>
